<svg width="153" height="39" viewBox="0 0 153 39" fill="none" xmlns="http://www.w3.org/2000/svg">
<path d="M18.31 0.706521H11.497C11.0266 0.706521 10.6453 1.07339 10.6453 1.52594V8.0813C10.6453 8.53386 11.0266 8.90072 11.497 8.90072H18.31C18.7803 8.90072 19.1616 8.53386 19.1616 8.0813V1.52594C19.1616 1.07339 18.7803 0.706521 18.31 0.706521Z" fill="black"/>
<path d="M28.5295 0.706521H21.7165C21.2462 0.706521 20.8649 1.07339 20.8649 1.52594V8.0813C20.8649 8.53386 21.2462 8.90072 21.7165 8.90072H28.5295C28.9999 8.90072 29.3812 8.53386 29.3812 8.0813V1.52594C29.3812 1.07339 28.9999 0.706521 28.5295 0.706521Z" fill="black"/>
<path d="M8.09046 10.5396H1.27744C0.807097 10.5396 0.425811 10.9064 0.425811 11.359V17.9143C0.425811 18.3669 0.807097 18.7338 1.27744 18.7338H8.09046C8.5608 18.7338 8.94209 18.3669 8.94209 17.9143V11.359C8.94209 10.9064 8.5608 10.5396 8.09046 10.5396Z" fill="black"/>
<path d="M18.31 10.5396H11.497C11.0266 10.5396 10.6453 10.9064 10.6453 11.359V17.9143C10.6453 18.3669 11.0266 18.7338 11.497 18.7338H18.31C18.7803 18.7338 19.1616 18.3669 19.1616 17.9143V11.359C19.1616 10.9064 18.7803 10.5396 18.31 10.5396Z" fill="black"/>
<path d="M8.09046 20.3726H1.27744C0.807097 20.3726 0.425811 20.7395 0.425811 21.192V27.7474C0.425811 28.1999 0.807097 28.5668 1.27744 28.5668H8.09046C8.5608 28.5668 8.94209 28.1999 8.94209 27.7474V21.192C8.94209 20.7395 8.5608 20.3726 8.09046 20.3726Z" fill="black"/>
<path d="M18.31 20.3726H11.497C11.0266 20.3726 10.6453 20.7395 10.6453 21.192V27.7474C10.6453 28.1999 11.0266 28.5668 11.497 28.5668H18.31C18.7803 28.5668 19.1616 28.1999 19.1616 27.7474V21.192C19.1616 20.7395 18.7803 20.3726 18.31 20.3726Z" fill="black"/>
<path d="M28.5295 20.3726H21.7165C21.2462 20.3726 20.8649 20.7395 20.8649 21.192V27.7474C20.8649 28.1999 21.2462 28.5668 21.7165 28.5668H28.5295C28.9999 28.5668 29.3812 28.1999 29.3812 27.7474V21.192C29.3812 20.7395 28.9999 20.3726 28.5295 20.3726Z" fill="black"/>
<path d="M8.09046 30.2057H1.27744C0.807097 30.2057 0.425811 30.5725 0.425811 31.0251V37.5804C0.425811 38.033 0.807097 38.3998 1.27744 38.3998H8.09046C8.5608 38.3998 8.94209 38.033 8.94209 37.5804V31.0251C8.94209 30.5725 8.5608 30.2057 8.09046 30.2057Z" fill="black"/>
<path d="M18.31 30.2057H11.497C11.0266 30.2057 10.6453 30.5725 10.6453 31.0251V37.5804C10.6453 38.033 11.0266 38.3998 11.497 38.3998H18.31C18.7803 38.3998 19.1616 38.033 19.1616 37.5804V31.0251C19.1616 30.5725 18.7803 30.2057 18.31 30.2057Z" fill="black"/>
<path d="M4.68396 9.31044C7.27083 9.31044 9.36791 7.29267 9.36791 4.80363C9.36791 2.31458 7.27083 0.296814 4.68396 0.296814C2.09708 0.296814 0 2.31458 0 4.80363C0 7.29267 2.09708 9.31044 4.68396 9.31044Z" fill="black"/>
<path d="M36.5543 17.2087V9.01937H38.359V17.2087H36.5543Z" fill="black"/>
<path d="M48.064 17.2087H45.7703L42.0677 11.0134H42.0153C42.0891 12.1076 42.1259 12.8881 42.1259 13.3548V17.2087H40.5133V9.01937H42.7896L46.4864 15.1531H46.5271C46.4689 14.0889 46.4398 13.3364 46.4398 12.8957V9.0195H48.064L48.064 17.2087Z" fill="black"/>
<path d="M55.2245 14.9348C55.2245 15.6741 54.947 16.2567 54.392 16.6824C53.8409 17.1081 53.0724 17.321 52.0866 17.321C51.1784 17.321 50.375 17.1567 49.6764 16.8281V15.2148C50.2508 15.4613 50.736 15.635 51.1319 15.7358C51.5316 15.8366 51.8964 15.887 52.2263 15.887C52.6222 15.887 52.9249 15.8142 53.1345 15.6686C53.348 15.5229 53.4547 15.3063 53.4547 15.0188C53.4547 14.8582 53.4081 14.7163 53.315 14.5931C53.2218 14.4661 53.084 14.3447 52.9016 14.229C52.7231 14.1132 52.3563 13.9284 51.8013 13.6744C51.2813 13.4392 50.8912 13.2132 50.6312 12.9967C50.3712 12.7801 50.1635 12.528 50.0083 12.2405C49.853 11.9529 49.7754 11.6168 49.7754 11.2322C49.7754 10.5077 50.0296 9.93826 50.538 9.52375C51.0504 9.10923 51.7567 8.90197 52.6571 8.90197C53.0996 8.90197 53.5207 8.95238 53.9204 9.05321C54.3241 9.15404 54.7452 9.29595 55.1838 9.47894L54.6016 10.8289C54.1475 10.6496 53.771 10.5245 53.4722 10.4536C53.1772 10.3826 52.8861 10.3472 52.5989 10.3472C52.2574 10.3472 51.9954 10.4237 51.813 10.5768C51.6306 10.7299 51.5394 10.9297 51.5394 11.1762C51.5394 11.3293 51.5763 11.4637 51.65 11.5795C51.7237 11.6915 51.8402 11.8017 51.9993 11.91C52.1623 12.0146 52.5446 12.205 53.1462 12.4813C53.9418 12.8473 54.4871 13.2151 54.7821 13.5848C55.0771 13.9508 55.2245 14.4007 55.2245 14.9348Z" fill="black"/>
<path d="M60.0507 17.2087H58.246V10.4644H55.9348V9.01925H62.362V10.4644H60.0508L60.0507 17.2087Z" fill="black"/>
<path d="M63.6833 17.2087V9.01937H65.4881V17.2087H63.6833Z" fill="black"/>
<path d="M70.9256 17.2087H69.1208V10.4644H66.8096V9.01925H73.2369V10.4644H70.9257L70.9256 17.2087Z" fill="black"/>
<path d="M81.4858 9.01856V14.3178C81.4858 14.9227 81.3441 15.453 81.0608 15.9086C80.7813 16.3642 80.3758 16.7133 79.844 16.956C79.3123 17.1988 78.6836 17.3201 77.9578 17.3201C76.8633 17.3201 76.0134 17.0513 75.4079 16.5135C74.8025 15.972 74.4997 15.2326 74.4997 14.2953V9.01863H76.2986V14.0318C76.2986 14.6629 76.4306 15.126 76.6945 15.421C76.9584 15.716 77.3951 15.8635 78.0044 15.8635C78.5943 15.8635 79.0212 15.716 79.2852 15.421C79.553 15.1222 79.6869 14.6555 79.6869 14.0206V9.01846L81.4858 9.01856Z" fill="black"/>
<path d="M86.8553 17.2087H85.0505V10.4644H82.7394V9.01925H89.1666V10.4644H86.8554L86.8553 17.2087Z" fill="black"/>
<path d="M98.2117 13.1034C98.2117 14.4589 97.8624 15.5008 97.1638 16.229C96.4653 16.9572 95.4639 17.3213 94.1599 17.3213C92.8558 17.3213 91.8545 16.9572 91.1559 16.229C90.4573 15.5008 90.108 14.4552 90.108 13.0922C90.108 11.7292 90.4573 10.6891 91.1559 9.97216C91.8584 9.25142 92.8636 8.89105 94.1715 8.89105C95.4794 8.89105 96.4788 9.25328 97.1696 9.97773C97.8644 10.7022 98.2117 11.7441 98.2117 13.1034ZM92 13.1034C92 14.0183 92.1804 14.7073 92.5414 15.1703C92.9023 15.6334 93.4418 15.8649 94.1598 15.8649C95.5997 15.8649 96.3197 14.9444 96.3197 13.1034C96.3197 11.2586 95.6036 10.3362 94.1715 10.3362C93.4535 10.3362 92.9121 10.5696 92.5472 11.0364C92.1824 11.4995 92 12.1885 92 13.1034Z" fill="black"/>
<path d="M104.692 17.1139H102.916V8.92463H107.794V10.3474H104.692V12.4592H107.579V13.8764H104.692V17.1139Z" fill="black"/>
<path d="M114.361 17.1139H109.459V8.92463H114.361V10.3474H111.264V12.1455H114.146V13.5683H111.264V15.68H114.361V17.1139Z" fill="black"/>
<path d="M123.205 12.939C123.205 14.2871 122.805 15.3197 122.005 16.0366C121.21 16.7536 120.059 17.1121 118.553 17.1121H116.143V8.92284H118.815C120.205 8.92284 121.284 9.27574 122.052 9.98153C122.82 10.6873 123.205 11.673 123.205 12.939ZM121.33 12.9838C121.33 11.2249 120.523 10.3455 118.908 10.3455H117.948V15.6783H118.722C120.461 15.6783 121.33 14.78 121.33 12.9838Z" fill="black"/>
<path d="M129.87 17.1139H124.968V8.92463H129.87V10.3474H126.773V12.1455H129.655V13.5683H126.773V15.68H129.87V17.1139Z" fill="black"/>
<path d="M133.457 12.558H134.039C134.609 12.558 135.03 12.4665 135.302 12.2835C135.574 12.1005 135.71 11.813 135.71 11.4208C135.71 11.0325 135.57 10.7561 135.29 10.5918C135.015 10.4275 134.586 10.3454 134.004 10.3454H133.457V12.558ZM133.457 13.9695V17.112H131.652V8.92269H134.132C135.288 8.92269 136.144 9.1262 136.699 9.53324C137.254 9.93656 137.532 10.5508 137.532 11.3761C137.532 11.8579 137.394 12.2873 137.118 12.6644C136.843 13.0379 136.453 13.331 135.948 13.5439C137.229 15.3849 138.063 16.5743 138.452 17.1121H136.449L134.417 13.9696L133.457 13.9695Z" fill="black"/>
<path d="M144.733 17.1139L144.115 15.1646H141.012L140.395 17.1139H138.451L141.455 8.89105H143.661L146.677 17.1139H144.733ZM143.685 13.7082C143.114 11.9419 142.792 10.9429 142.718 10.7114C142.648 10.4799 142.598 10.2969 142.567 10.1625C142.439 10.6405 142.072 11.8224 141.467 13.7083L143.685 13.7082Z" fill="black"/>
<path d="M147.743 17.1139V8.92463H149.548V15.6799H153V17.1139H147.743Z" fill="black"/>
<path d="M39.0621 24.5043H41.23V27.4883C40.8927 27.5919 40.5495 27.6702 40.2006 27.7234C39.8516 27.7765 39.4474 27.8031 38.988 27.8031C38.0225 27.8031 37.2708 27.5275 36.7328 26.9763C36.1949 26.4223 35.9259 25.6473 35.9259 24.6512C35.9259 24.0132 36.0582 23.455 36.3228 22.9766C36.5903 22.4953 36.9742 22.1288 37.4744 21.877C37.9745 21.6223 38.5605 21.495 39.2322 21.495C39.9127 21.495 40.5466 21.6153 41.134 21.856L40.8462 22.4855C40.2704 22.2505 39.7164 22.133 39.1842 22.133C38.4078 22.133 37.8015 22.3554 37.3653 22.8003C36.9291 23.2452 36.711 23.8621 36.711 24.6512C36.711 25.4794 36.9204 26.1075 37.3391 26.5356C37.7608 26.9637 38.3787 27.1778 39.193 27.1778C39.635 27.1778 40.0668 27.1288 40.4885 27.0309V25.1422H39.0621V24.5043Z" fill="black"/>
<path d="M46.7828 25.415C46.7828 26.1649 46.5865 26.7511 46.1939 27.1736C45.8013 27.5933 45.259 27.8031 44.5669 27.8031C44.1394 27.8031 43.7599 27.7066 43.4284 27.5135C43.0969 27.3205 42.841 27.0435 42.6607 26.6825C42.4804 26.3216 42.3903 25.8991 42.3903 25.415C42.3903 24.6652 42.5851 24.0818 42.9748 23.6649C43.3645 23.2452 43.9053 23.0353 44.5974 23.0353C45.2663 23.0353 45.797 23.2494 46.1896 23.6775C46.585 24.1056 46.7828 24.6848 46.7828 25.415ZM43.1406 25.415C43.1406 26.0026 43.2627 26.4503 43.507 26.7581C43.7512 27.0658 44.1104 27.2197 44.5844 27.2197C45.0584 27.2197 45.4175 27.0672 45.6618 26.7623C45.9089 26.4545 46.0325 26.0054 46.0325 25.415C46.0325 24.8302 45.9089 24.3868 45.6618 24.0846C45.4175 23.7796 45.0555 23.6271 44.5756 23.6271C44.1016 23.6271 43.744 23.7768 43.5026 24.0762C43.2612 24.3756 43.1406 24.8219 43.1406 25.415Z" fill="black"/>
<path d="M48.7806 27.7192H48.0565V23.1193H48.7806V27.7192ZM47.9954 21.8728C47.9954 21.7133 48.0361 21.5972 48.1175 21.5244C48.199 21.4489 48.3008 21.4111 48.4229 21.4111C48.5392 21.4111 48.6395 21.4489 48.7239 21.5244C48.8082 21.6 48.8504 21.7161 48.8504 21.8728C48.8504 22.0295 48.8082 22.147 48.7239 22.2253C48.6395 22.3009 48.5392 22.3386 48.4229 22.3386C48.3008 22.3386 48.199 22.3009 48.1175 22.2253C48.0361 22.147 47.9954 22.0295 47.9954 21.8728Z" fill="black"/>
<path d="M53.2559 27.7192L53.112 27.0644H53.0771C52.8386 27.3526 52.6002 27.5485 52.3617 27.652C52.1262 27.7528 51.831 27.8031 51.4763 27.8031C51.0023 27.8031 50.63 27.6856 50.3596 27.4506C50.0921 27.2155 49.9583 26.8812 49.9583 26.4475C49.9583 25.5186 50.7304 25.0317 52.2745 24.9869L53.0858 24.9618V24.6764C53.0858 24.3154 53.0044 24.0496 52.8416 23.8789C52.6816 23.7055 52.4243 23.6187 52.0695 23.6187C51.6711 23.6187 51.2204 23.7362 50.7173 23.9713L50.4948 23.4382C50.7304 23.3151 50.9877 23.2186 51.2669 23.1487C51.549 23.0787 51.831 23.0437 52.1131 23.0437C52.6831 23.0437 53.1047 23.1654 53.3781 23.4089C53.6543 23.6523 53.7925 24.0426 53.7925 24.5798V27.7192H53.2559ZM51.6202 27.2281C52.0709 27.2281 52.4243 27.1092 52.6802 26.8714C52.939 26.6336 53.0684 26.3006 53.0684 25.8725V25.457L52.3443 25.4864C51.7685 25.506 51.3527 25.5927 51.0968 25.7466C50.8438 25.8977 50.7173 26.1341 50.7173 26.4559C50.7173 26.7077 50.7958 26.8994 50.9528 27.0309C51.1128 27.1624 51.3352 27.2281 51.6202 27.2281Z" fill="black"/>
<path d="M58.5601 27.7192V24.7435C58.5601 24.3686 58.4714 24.0888 58.294 23.9041C58.1166 23.7194 57.8389 23.6271 57.4609 23.6271C56.9607 23.6271 56.5943 23.7572 56.3617 24.0174C56.129 24.2776 56.0127 24.7071 56.0127 25.3059V27.7192H55.2886V23.1193H55.8775L55.9953 23.7488H56.0301C56.1785 23.5222 56.3864 23.3473 56.6539 23.2242C56.9214 23.0983 57.2195 23.0353 57.5481 23.0353C58.1239 23.0353 58.5572 23.1696 58.848 23.4382C59.1388 23.7041 59.2842 24.1307 59.2842 24.7183V27.7192H58.5601Z" fill="black"/>
<path d="M64.9024 25.415C64.9024 26.1649 64.7061 26.7511 64.3135 27.1736C63.9209 27.5933 63.3786 27.8031 62.6865 27.8031C62.259 27.8031 61.8795 27.7066 61.548 27.5135C61.2165 27.3205 60.9606 27.0435 60.7803 26.6825C60.6 26.3216 60.5099 25.8991 60.5099 25.415C60.5099 24.6652 60.7047 24.0818 61.0944 23.6649C61.4841 23.2452 62.0249 23.0353 62.717 23.0353C63.3859 23.0353 63.9166 23.2494 64.3092 23.6775C64.7046 24.1056 64.9024 24.6848 64.9024 25.415ZM61.2601 25.415C61.2601 26.0026 61.3823 26.4503 61.6265 26.7581C61.8708 27.0658 62.2299 27.2197 62.7039 27.2197C63.1779 27.2197 63.5371 27.0672 63.7814 26.7623C64.0285 26.4545 64.1521 26.0054 64.1521 25.415C64.1521 24.8302 64.0285 24.3868 63.7814 24.0846C63.5371 23.7796 63.175 23.6271 62.6952 23.6271C62.2212 23.6271 61.8635 23.7768 61.6222 24.0762C61.3808 24.3756 61.2601 24.8219 61.2601 25.415Z" fill="black"/>
<path d="M38.7911 30.7284C38.0903 30.7284 37.5363 30.9537 37.1292 31.4041C36.725 31.8518 36.5229 32.466 36.5229 33.2466C36.5229 34.0497 36.7178 34.6708 37.1074 35.1101C37.5 35.5466 38.0583 35.7648 38.7824 35.7648C39.2273 35.7648 39.7348 35.6879 40.3047 35.534V36.1593C39.8627 36.3188 39.3175 36.3986 38.669 36.3986C37.7297 36.3986 37.0042 36.1244 36.4924 35.576C35.9835 35.0276 35.729 34.2483 35.729 33.2382C35.729 32.6059 35.8512 32.0519 36.0954 31.5762C36.3426 31.1006 36.6974 30.734 37.1598 30.4766C37.625 30.2192 38.1717 30.0905 38.7999 30.0905C39.4687 30.0905 40.0532 30.208 40.5534 30.443L40.2393 31.0558C39.7566 30.8376 39.2739 30.7284 38.7911 30.7284Z" fill="black"/>
<path d="M44.5271 36.3146L44.3832 35.6599H44.3483C44.1098 35.9481 43.8714 36.144 43.6329 36.2475C43.3974 36.3482 43.1022 36.3986 42.7474 36.3986C42.2734 36.3986 41.9012 36.2811 41.6308 36.046C41.3632 35.811 41.2295 35.4766 41.2295 35.0429C41.2295 34.114 42.0015 33.6272 43.5457 33.5824L44.357 33.5572V33.2718C44.357 32.9109 44.2756 32.6451 44.1127 32.4744C43.9528 32.3009 43.6954 32.2142 43.3407 32.2142C42.9423 32.2142 42.4915 32.3317 41.9885 32.5667L41.766 32.0337C42.0015 31.9106 42.2589 31.8141 42.5381 31.7441C42.8201 31.6742 43.1022 31.6392 43.3843 31.6392C43.9543 31.6392 44.3759 31.7609 44.6493 32.0043C44.9255 32.2477 45.0636 32.6381 45.0636 33.1753V36.3146H44.5271ZM42.8914 35.8236C43.3421 35.8236 43.6954 35.7047 43.9513 35.4668C44.2102 35.229 44.3396 34.896 44.3396 34.468V34.0525L43.6155 34.0818C43.0397 34.1014 42.6239 34.1882 42.368 34.342C42.115 34.4931 41.9885 34.7296 41.9885 35.0513C41.9885 35.3032 42.067 35.4948 42.224 35.6263C42.3839 35.7578 42.6064 35.8236 42.8914 35.8236Z" fill="black"/>
<path d="M52.6535 36.3146V33.3222C52.6535 32.9556 52.572 32.6814 52.4092 32.4996C52.2463 32.3149 51.9933 32.2226 51.6502 32.2226C51.1995 32.2226 50.8665 32.3471 50.6513 32.5961C50.4361 32.8451 50.3285 33.2284 50.3285 33.7461V36.3146H49.6044V33.3222C49.6044 32.9556 49.523 32.6814 49.3602 32.4996C49.1973 32.3149 48.9429 32.2226 48.5968 32.2226C48.1432 32.2226 47.8102 32.3541 47.5979 32.6171C47.3886 32.8773 47.2839 33.3054 47.2839 33.9014V36.3146H46.5598V31.7147H47.1487L47.2664 32.3443H47.3013C47.438 32.1204 47.6299 31.9456 47.8771 31.8196C48.1272 31.6937 48.4064 31.6308 48.7146 31.6308C49.462 31.6308 49.9505 31.891 50.1802 32.4114H50.2151C50.3576 32.1708 50.5641 31.9805 50.8345 31.8406C51.105 31.7007 51.4132 31.6308 51.7593 31.6308C52.3001 31.6308 52.7043 31.7651 52.9719 32.0337C53.2423 32.2995 53.3775 32.7262 53.3775 33.3138V36.3146H52.6535Z" fill="black"/>
<path d="M57.0983 36.3986C56.7871 36.3986 56.5022 36.344 56.2434 36.2349C55.9874 36.123 55.7723 35.9523 55.5978 35.7229H55.5454C55.5803 35.9915 55.5978 36.2461 55.5978 36.4867V38.3796H54.8737V31.7147H55.4626L55.5629 32.3443H55.5978C55.7839 32.0925 56.0005 31.9106 56.2477 31.7987C56.4949 31.6867 56.7784 31.6308 57.0983 31.6308C57.7322 31.6308 58.2208 31.8392 58.5639 32.2561C58.91 32.673 59.083 33.2578 59.083 34.0105C59.083 34.7659 58.9071 35.3535 58.5552 35.7732C58.2062 36.1901 57.7206 36.3986 57.0983 36.3986ZM56.9936 32.2226C56.5051 32.2226 56.1517 32.3527 55.9337 32.6129C55.7156 32.8731 55.6036 33.2872 55.5978 33.8552V34.0105C55.5978 34.6568 55.7097 35.1199 55.9337 35.3997C56.1576 35.6767 56.5167 35.8152 57.0111 35.8152C57.424 35.8152 57.7468 35.6543 57.9794 35.3325C58.215 35.0108 58.3327 34.5673 58.3327 34.0021C58.3327 33.4285 58.215 32.9892 57.9794 32.6842C57.7468 32.3764 57.4182 32.2226 56.9936 32.2226Z" fill="black"/>
<path d="M61.0328 31.7147V34.6988C61.0328 35.0737 61.1215 35.3535 61.2989 35.5382C61.4763 35.7229 61.754 35.8152 62.132 35.8152C62.6322 35.8152 62.9971 35.6837 63.2269 35.4207C63.4595 35.1577 63.5758 34.7282 63.5758 34.1322V31.7147H64.2999V36.3146H63.7023L63.5976 35.6977H63.5584C63.4101 35.9243 63.2036 36.0978 62.939 36.2181C62.6772 36.3384 62.3777 36.3986 62.0404 36.3986C61.4588 36.3986 61.0226 36.2657 60.7318 35.9999C60.4439 35.734 60.3 35.3088 60.3 34.724V31.7147H61.0328Z" fill="black"/>
<path d="M68.9236 35.0597C68.9236 35.4878 68.7578 35.818 68.4263 36.0502C68.0948 36.2825 67.6295 36.3986 67.0305 36.3986C66.3965 36.3986 65.9022 36.302 65.5474 36.109V35.4626C65.7771 35.5746 66.0229 35.6627 66.2846 35.7271C66.5492 35.7914 66.8037 35.8236 67.0479 35.8236C67.426 35.8236 67.7168 35.7662 67.9203 35.6515C68.1239 35.534 68.2257 35.3563 68.2257 35.1185C68.2257 34.9394 68.1442 34.7869 67.9814 34.661C67.8215 34.5323 67.5074 34.3812 67.0392 34.2077C66.5943 34.0483 66.2773 33.9098 66.0883 33.7922C65.9022 33.6719 65.7626 33.5362 65.6695 33.3851C65.5794 33.234 65.5343 33.0536 65.5343 32.8437C65.5343 32.4688 65.6928 32.1736 66.0098 31.9581C66.3268 31.7399 66.7615 31.6308 67.314 31.6308C67.8287 31.6308 68.3318 31.7315 68.8232 31.933L68.5659 32.4996C68.0861 32.3093 67.6513 32.2142 67.2617 32.2142C66.9185 32.2142 66.6597 32.2659 66.4852 32.3695C66.3108 32.473 66.2235 32.6157 66.2235 32.7975C66.2235 32.9207 66.2555 33.0256 66.3195 33.1123C66.3864 33.1991 66.4925 33.2816 66.6379 33.3599C66.7833 33.4383 67.0625 33.5516 67.4754 33.6999C68.0425 33.8986 68.4249 34.0986 68.6226 34.3001C68.8232 34.5015 68.9236 34.7547 68.9236 35.0597Z" fill="black"/>
<path d="M72.5353 36.3146V30.1786H73.2768V36.3146H72.5353Z" fill="black"/>
<path d="M77.1459 36.3986C76.8347 36.3986 76.5497 36.344 76.2909 36.2349C76.035 36.123 75.8198 35.9523 75.6454 35.7229H75.593C75.6279 35.9915 75.6454 36.2461 75.6454 36.4867V38.3796H74.9213V31.7147H75.5101L75.6105 32.3443H75.6454C75.8315 32.0925 76.0481 31.9106 76.2953 31.7987C76.5425 31.6867 76.826 31.6308 77.1459 31.6308C77.7798 31.6308 78.2684 31.8392 78.6115 32.2561C78.9575 32.673 79.1306 33.2578 79.1306 34.0105C79.1306 34.7659 78.9546 35.3535 78.6028 35.7732C78.2538 36.1901 77.7682 36.3986 77.1459 36.3986ZM77.0412 32.2226C76.5527 32.2226 76.1993 32.3527 75.9812 32.6129C75.7631 32.8731 75.6512 33.2872 75.6454 33.8552V34.0105C75.6454 34.6568 75.7573 35.1199 75.9812 35.3997C76.2051 35.6767 76.5643 35.8152 77.0586 35.8152C77.4716 35.8152 77.7943 35.6543 78.027 35.3325C78.2625 35.0108 78.3803 34.5673 78.3803 34.0021C78.3803 33.4285 78.2625 32.9892 78.027 32.6842C77.7943 32.3764 77.4658 32.2226 77.0412 32.2226Z" fill="black"/>
<path d="M84.5263 34.0105C84.5263 34.7603 84.33 35.3465 83.9374 35.769C83.5449 36.1887 83.0025 36.3986 82.3104 36.3986C81.883 36.3986 81.5035 36.302 81.172 36.109C80.8405 35.9159 80.5846 35.6389 80.4043 35.278C80.224 34.917 80.1338 34.4945 80.1338 34.0105C80.1338 33.2606 80.3287 32.6772 80.7183 32.2603C81.108 31.8406 81.6489 31.6308 82.341 31.6308C83.0098 31.6308 83.5405 31.8448 83.9331 32.2729C84.3286 32.701 84.5263 33.2802 84.5263 34.0105ZM80.8841 34.0105C80.8841 34.5981 81.0062 35.0457 81.2505 35.3535C81.4948 35.6613 81.8539 35.8152 82.3279 35.8152C82.8019 35.8152 83.161 35.6627 83.4053 35.3577C83.6525 35.0499 83.7761 34.6009 83.7761 34.0105C83.7761 33.4257 83.6525 32.9822 83.4053 32.68C83.161 32.375 82.799 32.2226 82.3192 32.2226C81.8452 32.2226 81.4875 32.3723 81.2461 32.6716C81.0048 32.971 80.8841 33.4173 80.8841 34.0105Z" fill="black"/>
<path d="M87.981 31.6308C88.1933 31.6308 88.3837 31.6476 88.5524 31.6811L88.4521 32.3275C88.2543 32.2855 88.0799 32.2645 87.9286 32.2645C87.5419 32.2645 87.2104 32.4156 86.9341 32.7178C86.6608 33.02 86.5241 33.3963 86.5241 33.8468V36.3146H85.8V31.7147H86.3976L86.4805 32.5667H86.5154C86.6928 32.2673 86.9065 32.0365 87.1566 31.8742C87.4067 31.7119 87.6815 31.6308 87.981 31.6308Z" fill="black"/>
<path d="M92.3866 36.3146L92.2426 35.6599H92.2077C91.9693 35.9481 91.7308 36.144 91.4924 36.2475C91.2568 36.3482 90.9617 36.3986 90.6069 36.3986C90.1329 36.3986 89.7607 36.2811 89.4902 36.046C89.2227 35.811 89.0889 35.4766 89.0889 35.0429C89.0889 34.114 89.861 33.6272 91.4051 33.5824L92.2165 33.5572V33.2718C92.2165 32.9109 92.135 32.6451 91.9722 32.4744C91.8122 32.3009 91.5549 32.2142 91.2001 32.2142C90.8017 32.2142 90.351 32.3317 89.8479 32.5667L89.6255 32.0337C89.861 31.9106 90.1184 31.8141 90.3975 31.7441C90.6796 31.6742 90.9617 31.6392 91.2437 31.6392C91.8137 31.6392 92.2354 31.7609 92.5087 32.0043C92.785 32.2477 92.9231 32.6381 92.9231 33.1753V36.3146H92.3866ZM90.7508 35.8236C91.2016 35.8236 91.5549 35.7047 91.8108 35.4668C92.0696 35.229 92.199 34.896 92.199 34.468V34.0525L91.4749 34.0818C90.8991 34.1014 90.4833 34.1882 90.2274 34.342C89.9744 34.4931 89.8479 34.7296 89.8479 35.0513C89.8479 35.3032 89.9264 35.4948 90.0835 35.6263C90.2434 35.7578 90.4659 35.8236 90.7508 35.8236ZM90.5807 31.0012C90.7203 30.8278 90.8701 30.6179 91.03 30.3717C91.1928 30.1255 91.3208 29.9114 91.4139 29.7295H92.295V29.8177C92.167 29.9995 91.9765 30.2234 91.7236 30.4892C91.4706 30.755 91.251 30.9607 91.0649 31.1062H90.5807V31.0012Z" fill="black"/>
</svg>
